<?xml version="1.0"?>

<svg version="1.1" id="Ebene_1" xmlns="http://www.w3.org/2000/svg" xmlns:xlink="http://www.w3.org/1999/xlink" x="0px" y="0px" viewBox="0 0 1920 1080" style="enable-background:new 0 0 1920 1080;" xml:space="preserve">
<g>
&#x9;<path d="M420,452.7h46.1l20.9,77.3c5.2,19.2,9.2,36.9,11.2,48.4h1c2-12.7,6.5-31.9,11-48.1l21.2-77.6h45.4v174.6h-27.9v-102&#xA;&#x9;&#x9;c0-6.7,0.5-29.2,1-44.9h-1c-4.5,20.2-8.7,37.9-11,46.4l-23.4,83.3h-31.9l-23.2-83.3c-2.5-8.7-7.7-30.4-11.2-46.4h-1.2&#xA;&#x9;&#x9;c0.5,15.7,1,38.7,1,45.6v101.2H420V452.7z"></path>
&#x9;<path d="M658.6,627.3V554l-54.9-101.2h35.7l19.9,43.1c2,5,9.5,20.9,15.2,32.9c8.7-18.7,11.2-24.7,15.2-32.9l20.2-43.1h34.9&#xA;&#x9;&#x9;L689.8,554v73.3H658.6z"></path>
&#x9;<path d="M865.1,627.3l-45.6-80.5l-18.2,20.9v59.6h-30.7V452.7h30.7v72.1l60.3-72.1h39.2l-60.1,69.6l61.1,105H865.1z"></path>
&#x9;<path d="M1042.9,478.2h-40.1v123.7h40.1v25.4H931.4v-25.4h40.1V478.2h-40.1v-25.4h111.5V478.2z"></path>
&#x9;<path d="M1080.1,627.3V452.7h30.9v148.1h80.8v26.4H1080.1z"></path>
&#x9;<path d="M1202.8,540c0-53.4,24.4-90.3,68.8-90.3c45.1,0,68.6,37.2,68.6,90.3c0,53.9-24.2,90.3-68.6,90.3&#xA;&#x9;&#x9;C1227.2,630.3,1202.8,598.6,1202.8,540z M1296.8,593.6c8.2-11,10.2-30.2,10.2-53.6c0-23.2-2-41.9-9.5-52.9&#xA;&#x9;&#x9;c-5.5-8.2-14.2-12-24.9-12c-12,0-21.2,4.2-26.9,12.7c-7.7,11.2-9.7,29.4-9.7,52.1c0,23.7,1.7,42.4,10,53.4&#xA;&#x9;&#x9;c5.5,7.7,14.7,11.7,25.7,11.7C1282.3,605.1,1291.3,601.3,1296.8,593.6z"></path>
&#x9;<path d="M1361.6,572.4l32.4-3.5c0.7,24.4,16.2,36.7,38.7,36.7c20.9,0,35.9-9,35.9-26.9c0-20-20.9-21.2-45.4-27.2&#xA;&#x9;&#x9;c-29.2-7.2-56.4-18.5-56.4-51.4c0-35.4,32.9-50.4,61.8-50.4c35.7,0,61.6,14.2,66.1,53.4l-31.7,5.2c-1.2-23.9-14.5-34.2-34.2-34.2&#xA;&#x9;&#x9;c-17.5,0-30.9,8.7-30.9,23.9c0,16.2,18.7,21.7,40.1,25.9c33.4,7,61.8,15.5,61.8,52.4s-29.4,53.9-67.8,53.9&#xA;&#x9;&#x9;C1393.8,630.3,1363.1,611.8,1361.6,572.4z"></path>
</g>
</svg>